<svg xmlns="http://www.w3.org/2000/svg" version="1.1" xmlns:xlink="http://www.w3.org/1999/xlink" xmlns:svgjs="http://svgjs.dev/svgjs" width="2000" height="1247" viewBox="0 0 2000 1247"><g transform="matrix(1,0,0,1,-1.2121212121212466,0.504858299595071)"><svg viewBox="0 0 396 247" data-background-color="#004643" preserveAspectRatio="xMidYMid meet" height="1247" width="2000" xmlns="http://www.w3.org/2000/svg" xmlns:xlink="http://www.w3.org/1999/xlink"><defs></defs><g id="tight-bounds" transform="matrix(1,0,0,1,0.2400000000000091,-0.09999999999999432)"><svg viewBox="0 0 395.52 247.2" height="247.2" width="395.52"><g><svg></svg></g><g><svg viewBox="0 0 395.52 247.2" height="247.2" width="395.52"><g><path d="M91.541 0.012h31.339l20.807 58.974-30.493 0zM196.298 208.099h2.924l7.009-19.885 28.647 0-21.653 58.974h-30.93l-21.653-58.974h28.64zM272.572 0.012h31.407l-21.653 58.974h-30.542z" fill="#f9bc60" data-fill-palette-color="tertiary"></path></g><g transform="matrix(1,0,0,1,0,75.43975044404512)"><svg viewBox="0 0 395.52 96.32049911190975" height="96.32049911190975" width="395.52"><g><svg viewBox="0 0 553.2745235791597 134.7382642016807" height="96.32049911190975" width="395.52"><g transform="matrix(1,0,0,1,0,18.621569075630262)"><svg viewBox="0 0 395.52 97.49512605042017" height="97.49512605042017" width="395.52"><g><svg viewBox="0 0 395.52 97.49512605042017" height="97.49512605042017" width="395.52"><g><svg viewBox="0 0 395.52 97.49512605042017" height="97.49512605042017" width="395.52"><g transform="matrix(1,0,0,1,0,0)"><svg width="395.52" viewBox="1.2799999713897705 -36.86000061035156 152.1199951171875 37.5" height="97.49512605042017" data-palette-color="#f9bc60"><path d="M1.28-36.36L5.89-36.36 16.69-5.75 17.12-5.75 27.91-36.36 32.53-36.36 19.18 0 14.63 0 1.28-36.36ZM38.21-36.36L42.61-36.36 42.61 0 38.21 0 38.21-36.36ZM73.65 0L51.42 0 51.42-36.36 73.36-36.36 73.36-32.46 55.82-32.46 55.82-20.17 72.23-20.17 72.23-16.26 55.82-16.26 55.82-3.91 73.65-3.91 73.65 0ZM92.46 0L87.92 0 77.98-36.36 82.45-36.36 90.05-6.75 90.4-6.75 98.15-36.36 103.12-36.36 110.86-6.75 111.21-6.75 118.81-36.36 123.29-36.36 113.34 0 108.8 0 100.77-28.98 100.49-28.98 92.46 0ZM152.9-27.27L148.64-27.27Q148.32-29.97 146.05-31.46 143.78-32.95 140.47-32.95L140.47-32.95Q138.06-32.95 136.26-32.17 134.45-31.39 133.45-30.02 132.45-28.66 132.45-26.92L132.45-26.92Q132.45-25.46 133.15-24.42 133.85-23.38 134.95-22.7 136.05-22.02 137.26-21.58 138.47-21.15 139.48-20.88L139.48-20.88 143.17-19.89Q144.59-19.51 146.34-18.86 148.09-18.2 149.7-17.07 151.3-15.94 152.35-14.19 153.4-12.43 153.4-9.87L153.4-9.87Q153.4-6.92 151.86-4.55 150.33-2.17 147.39-0.76 144.45 0.64 140.26 0.64L140.26 0.64Q136.35 0.64 133.5-0.62 130.65-1.88 129.03-4.14 127.4-6.39 127.19-9.38L127.19-9.38 131.74-9.38Q131.91-7.32 133.13-5.97 134.35-4.63 136.22-3.99 138.09-3.34 140.26-3.34L140.26-3.34Q142.78-3.34 144.79-4.16 146.79-4.99 147.97-6.47 149.14-7.95 149.14-9.94L149.14-9.94Q149.14-11.75 148.13-12.89 147.11-14.03 145.46-14.74 143.81-15.45 141.89-15.98L141.89-15.98 137.42-17.26Q133.16-18.48 130.67-20.76 128.19-23.03 128.19-26.7L128.19-26.7Q128.19-29.76 129.85-32.04 131.51-34.32 134.32-35.59 137.13-36.86 140.62-36.86L140.62-36.86Q144.13-36.86 146.87-35.61 149.6-34.36 151.21-32.19 152.81-30.02 152.9-27.27L152.9-27.27Z" opacity="1" transform="matrix(1,0,0,1,0,0)" fill="#f9bc60" class="undefined-text-0" data-fill-palette-color="primary" id="text-0"></path></svg></g></svg></g></svg></g></svg></g><g transform="matrix(1,0,0,1,418.536259377479,0)"><svg viewBox="0 0 134.7382642016807 134.7382642016807" height="134.7382642016807" width="134.7382642016807"><g data-palette-color="#abd1c6"><rect width="36.82845888179272" height="134.7382642016807" fill="#abd1c6" stroke="transparent" data-fill-palette-color="accent" x="0" fill-opacity="1"></rect><rect width="36.82845888179272" height="134.7382642016807" fill="#abd1c6" stroke="transparent" data-fill-palette-color="accent" x="44.912754733893564" fill-opacity="0.75"></rect><rect width="36.82845888179272" height="134.7382642016807" fill="#abd1c6" stroke="transparent" data-fill-palette-color="accent" x="89.82550946778713" fill-opacity="0.5"></rect></g></svg></g></svg></g></svg></g></svg></g></svg><rect width="395.52" height="247.2" fill="none" stroke="none" visibility="hidden"></rect></g></svg></g></svg>